# xmcd CD database file
#
# Track frame offsets:
#	150
#	19094
#	45319
#	45825
#	60824
#	91691
#	92464
#	108062
#	134701
#	147061
#	178863
#	196411
#
# Disc length: 2624 seconds
#
# Revision: 2
# Processed by: cddbd v1.5.2PL0 Copyright (c) Steve Scherf et al.
# Submitted via: CDex 1.70beta2
#
DISCID=890a3e0c
DTITLE=4th Ward Afro Klezmer Orchestra - Abdul the Rabbi
DYEAR=2012
DGENRE=Jazz
TTITLE0=Yemenite Tanz
TTITLE1=Oy Tate firm Mir tsu JoBerg
TTITLE2=Fiddler Intro
TTITLE3=Fiddler on the Roof
TTITLE4=Die Silver Wedding Die
TTITLE5=Abdul Intro
TTITLE6=Abdul the Rabbi
TTITLE7=Yesh Li Gan
TTITLE8=Toco Hills Kiddush Club
TTITLE9=Doina Blues
TTITLE10=Der Stazi
TTITLE11=Gracias
EXTD=YEAR: 2012
EXTT0=
EXTT1=
EXTT2=
EXTT3=
EXTT4=
EXTT5=
EXTT6=
EXTT7=
EXTT8=
EXTT9=
EXTT10=
EXTT11=
PLAYORDER=
